<svg width="165" height="35" viewBox="0 0 165 35" fill="none" xmlns="http://www.w3.org/2000/svg">
<path d="M7.032 5.92V14.32H18.312V19.648H7.032V28.528H19.752V34H0.312V0.447997H19.752V5.92H7.032ZM37.5709 0.495999C41.0909 0.495999 44.1789 1.184 46.8349 2.56C49.5229 3.936 51.5869 5.904 53.0269 8.464C54.4989 10.992 55.2349 13.936 55.2349 17.296C55.2349 20.656 54.4989 23.6 53.0269 26.128C51.5869 28.624 49.5229 30.56 46.8349 31.936C44.1789 33.312 41.0909 34 37.5709 34H25.8589V0.495999H37.5709ZM37.3309 28.288C40.8509 28.288 43.5709 27.328 45.4909 25.408C47.4109 23.488 48.3709 20.784 48.3709 17.296C48.3709 13.808 47.4109 11.088 45.4909 9.136C43.5709 7.152 40.8509 6.16 37.3309 6.16H32.5789V28.288H37.3309ZM66.9851 0.495999V34H60.2651V0.495999H66.9851ZM96.4245 0.495999V5.92H87.4965V34H80.7765V5.92H71.8485V0.495999H96.4245ZM116.88 34.336C113.744 34.336 110.864 33.6 108.24 32.128C105.616 30.656 103.536 28.624 102 26.032C100.464 23.408 99.6956 20.448 99.6956 17.152C99.6956 13.888 100.464 10.96 102 8.368C103.536 5.744 105.616 3.696 108.24 2.224C110.864 0.751999 113.744 0.0159998 116.88 0.0159998C120.048 0.0159998 122.928 0.751999 125.52 2.224C128.144 3.696 130.208 5.744 131.712 8.368C133.248 10.96 134.016 13.888 134.016 17.152C134.016 20.448 133.248 23.408 131.712 26.032C130.208 28.624 128.144 30.656 125.52 32.128C122.896 33.6 120.016 34.336 116.88 34.336ZM116.88 28.336C118.896 28.336 120.672 27.888 122.208 26.992C123.744 26.064 124.944 24.752 125.808 23.056C126.672 21.36 127.104 19.392 127.104 17.152C127.104 14.912 126.672 12.96 125.808 11.296C124.944 9.6 123.744 8.304 122.208 7.408C120.672 6.512 118.896 6.064 116.88 6.064C114.864 6.064 113.072 6.512 111.504 7.408C109.968 8.304 108.768 9.6 107.904 11.296C107.04 12.96 106.608 14.912 106.608 17.152C106.608 19.392 107.04 21.36 107.904 23.056C108.768 24.752 109.968 26.064 111.504 26.992C113.072 27.888 114.864 28.336 116.88 28.336ZM156.295 34L148.903 20.944H145.735V34H139.015V0.495999H151.591C154.183 0.495999 156.391 0.959999 158.215 1.888C160.039 2.784 161.399 4.016 162.295 5.584C163.223 7.12 163.687 8.848 163.687 10.768C163.687 12.976 163.047 14.976 161.767 16.768C160.487 18.528 158.583 19.744 156.055 20.416L164.071 34H156.295ZM145.735 15.904H151.351C153.175 15.904 154.535 15.472 155.431 14.608C156.327 13.712 156.775 12.48 156.775 10.912C156.775 9.376 156.327 8.192 155.431 7.36C154.535 6.496 153.175 6.064 151.351 6.064H145.735V15.904Z" fill="#242930"/>
</svg>
