<svg width="413" height="86" viewBox="0 0 413 86" fill="none" xmlns="http://www.w3.org/2000/svg">
<path d="M149.157 22.0879C152.367 23.7498 154.841 26.1123 156.594 29.1816C158.341 32.251 159.217 35.8165 159.217 39.8656C159.217 43.9147 158.341 47.4615 156.594 50.4937C154.848 53.5259 152.367 55.8698 149.157 57.5316C145.948 59.1934 142.233 60.0243 138.005 60.0243H123.939V19.6014H138.005C142.233 19.6014 145.948 20.4323 149.157 22.0942V22.0879ZM147.516 49.6566C149.824 47.3375 150.972 44.0759 150.972 39.8656C150.972 35.6552 149.818 32.3626 147.516 29.9877C145.207 27.6128 141.942 26.4285 137.715 26.4285H132.006V53.129H137.715C141.942 53.129 145.207 51.9695 147.516 49.6566Z" fill="#242930"/>
<path d="M173.34 19.6014V60.0243H165.268V19.6014H173.34Z" fill="#242930"/>
<path d="M209.314 31.7612C208.388 30.0622 207.123 28.7662 205.506 27.8795C203.889 26.9928 202.006 26.5463 199.858 26.5463C197.476 26.5463 195.359 27.0858 193.52 28.1709C191.675 29.2499 190.237 30.8001 189.2 32.8029C188.163 34.812 187.644 37.1311 187.644 39.754C187.644 42.3769 188.175 44.8138 189.231 46.8229C190.286 48.8319 191.755 50.3759 193.643 51.4548C195.526 52.5338 197.717 53.0794 200.216 53.0794C203.29 53.0794 205.808 52.2609 207.771 50.6177C209.733 48.9745 211.017 46.6926 211.634 43.7535H197.797V37.5527H219.589V44.6216C219.053 47.4429 217.898 50.0473 216.133 52.4408C214.368 54.8343 212.091 56.7565 209.301 58.2013C206.512 59.6461 203.395 60.3716 199.932 60.3716C196.05 60.3716 192.545 59.4911 189.41 57.7362C186.274 55.9814 183.818 53.5383 182.028 50.4069C180.238 47.2755 179.35 43.7287 179.35 39.7478C179.35 35.7669 180.245 32.2076 182.028 29.0639C183.818 25.9201 186.274 23.4645 189.41 21.7097C192.545 19.9549 196.032 19.0744 199.871 19.0744C204.407 19.0744 208.345 20.1843 211.69 22.4042C215.035 24.6241 217.337 27.7431 218.608 31.7612H209.326H209.314Z" fill="#242930"/>
<path d="M233.637 19.6014V60.0243H225.564V19.6014H233.637Z" fill="#242930"/>
<path d="M244.533 57.0417C241.497 54.7846 239.861 51.5478 239.633 47.3375H251.68C251.797 48.7637 252.217 49.8116 252.945 50.4627C253.674 51.12 254.618 51.4486 255.772 51.4486C256.809 51.4486 257.667 51.1882 258.339 50.6673C259.012 50.1465 259.345 49.421 259.345 48.4971C259.345 47.3003 258.79 46.3764 257.673 45.7191C256.556 45.0618 254.754 44.3301 252.254 43.5178C249.6 42.6311 247.459 41.7692 245.823 40.9383C244.188 40.1074 242.768 38.8921 241.558 37.2923C240.349 35.6925 239.744 33.5966 239.744 31.0109C239.744 28.4252 240.398 26.1371 241.707 24.2644C243.015 22.3918 244.817 20.9718 247.125 20.0045C249.434 19.0372 252.044 18.5597 254.963 18.5597C259.691 18.5597 263.468 19.6697 266.289 21.8895C269.115 24.1094 270.621 27.2284 270.813 31.2403H258.531C258.494 30.0064 258.117 29.0762 257.407 28.4624C256.698 27.8423 255.784 27.5322 254.667 27.5322C253.822 27.5322 253.13 27.7865 252.594 28.2825C252.057 28.7848 251.785 29.4979 251.785 30.428C251.785 31.2031 252.081 31.8666 252.68 32.4247C253.272 32.9827 254.013 33.4664 254.902 33.8694C255.784 34.2725 257.093 34.7871 258.821 35.4072C261.394 36.2939 263.518 37.1744 265.19 38.0426C266.863 38.9107 268.301 40.126 269.51 41.6886C270.72 43.2512 271.325 45.2293 271.325 47.6228C271.325 50.0163 270.72 52.2361 269.51 54.1708C268.301 56.0992 266.548 57.6246 264.264 58.7469C261.975 59.8693 259.278 60.4273 256.167 60.4273C251.439 60.4273 247.557 59.2988 244.521 57.0417H244.533Z" fill="#EE4343"/>
<path d="M287.884 19.1922V60.0243H276.584V19.1922H287.884Z" fill="#EE4343"/>
<path d="M320.291 32.6293C319.637 31.5503 318.742 30.7194 317.612 30.1366C316.477 29.5599 315.144 29.2685 313.607 29.2685C310.762 29.2685 308.521 30.1924 306.892 32.0464C305.256 33.9004 304.442 36.3932 304.442 39.5183C304.442 43.0342 305.318 45.7067 307.065 47.5421C308.811 49.3776 311.36 50.2953 314.705 50.2953C318.661 50.2953 321.488 48.4971 323.179 44.9068H311.823V36.7404H332.924V47.7468C332.042 49.9108 330.74 51.9385 329.036 53.8297C327.327 55.721 325.167 57.2774 322.55 58.4927C319.933 59.7081 316.958 60.3157 313.613 60.3157C309.54 60.3157 305.935 59.4352 302.806 57.6804C299.671 55.9256 297.252 53.4701 295.542 50.3263C293.832 47.1825 292.975 43.5798 292.975 39.5245C292.975 35.4692 293.826 31.9286 295.542 28.7786C297.252 25.6286 299.665 23.1793 302.775 21.4245C305.886 19.6697 309.484 18.7892 313.557 18.7892C318.668 18.7892 322.895 20.0231 326.24 22.4972C329.585 24.9713 331.659 28.3445 332.468 32.6355H320.303L320.291 32.6293Z" fill="#EE4343"/>
<path d="M375.628 60.0243H364.328L349.281 37.2055V60.0243H337.98V19.1922H349.281L364.328 42.3025V19.1922H375.628V60.0243Z" fill="#EE4343"/>
<path d="M385.771 57.0417C382.735 54.7846 381.099 51.5478 380.871 47.3375H392.918C393.036 48.7637 393.455 49.8116 394.184 50.4627C394.912 51.12 395.856 51.4486 397.01 51.4486C398.047 51.4486 398.905 51.1882 399.578 50.6673C400.25 50.1465 400.584 49.421 400.584 48.4971C400.584 47.3003 400.028 46.3764 398.911 45.7191C397.794 45.0618 395.992 44.3301 393.492 43.5178C390.838 42.6311 388.697 41.7692 387.061 40.9383C385.426 40.1074 384.006 38.8921 382.797 37.2923C381.587 35.6925 380.982 33.5966 380.982 31.0109C380.982 28.4252 381.636 26.1371 382.945 24.2644C384.253 22.3918 386.055 20.9718 388.364 20.0045C390.672 19.0372 393.283 18.5597 396.202 18.5597C400.929 18.5597 404.706 19.6697 407.527 21.8895C410.354 24.1094 411.86 27.2284 412.051 31.2403H399.769C399.732 30.0064 399.356 29.0762 398.646 28.4624C397.936 27.8423 397.023 27.5322 395.905 27.5322C395.06 27.5322 394.369 27.7865 393.832 28.2825C393.295 28.7848 393.023 29.4979 393.023 30.428C393.023 31.2031 393.32 31.8666 393.918 32.4247C394.511 32.9827 395.251 33.4664 396.14 33.8694C397.023 34.2725 398.331 34.7871 400.059 35.4072C402.633 36.2939 404.756 37.1744 406.428 38.0426C408.101 38.9107 409.539 40.126 410.749 41.6886C411.958 43.2512 412.563 45.2293 412.563 47.6228C412.563 50.0163 411.958 52.2361 410.749 54.1708C409.539 56.0992 407.786 57.6246 405.503 58.7469C403.213 59.8693 400.516 60.4273 397.405 60.4273C392.678 60.4273 388.796 59.2988 385.759 57.0417H385.771Z" fill="#EE4343"/>
<path d="M88.0711 41.1671C88.0711 53.3516 83.7693 63.7627 75.1721 72.4066C66.5686 81.0753 56.1939 85.4097 44.0355 85.4097H0L49.4728 38.9659L44.0294 63.2915C50.1085 63.2915 55.299 61.115 59.5945 56.7683C63.8963 52.4463 66.044 47.2501 66.044 41.1733H88.0587L88.0711 41.1671Z" fill="#EE4343"/>
<path d="M14.7617 44.2425C14.7617 32.058 19.0634 21.6469 27.6607 13.003C36.2641 4.33434 46.6389 0 58.7972 0H102.833L53.3537 46.45L58.7972 22.1244C52.7181 22.1244 47.5276 24.3008 43.2321 28.6476C38.9303 32.9695 36.7826 38.1658 36.7826 44.2425H14.7617Z" fill="#EE4343"/>
</svg>
