<svg width="45" height="37" viewBox="0 0 45 37" fill="none" xmlns="http://www.w3.org/2000/svg">
<path d="M37.7305 17.6364C37.7305 22.8564 35.8876 27.3166 32.2045 31.0197C28.5187 34.7335 24.074 36.5903 18.8653 36.5903H0L21.1947 16.6934L18.8626 27.1147C21.467 27.1147 23.6906 26.1823 25.5309 24.3201C27.3738 22.4685 28.2939 20.2424 28.2939 17.6391H37.7252L37.7305 17.6364Z" fill="#EE4343"/>
<path d="M6.32422 18.9539C6.32422 13.734 8.16712 9.27375 11.8503 5.57062C15.5361 1.85687 19.9807 0 25.1895 0H44.0547L22.8574 19.8996L25.1895 9.47829C22.5851 9.47829 20.3614 10.4107 18.5212 12.2729C16.6783 14.1245 15.7582 16.3506 15.7582 18.9539H6.32422Z" fill="#EE4343"/>
</svg>
